<svg xmlns="http://www.w3.org/2000/svg" viewBox="0 0 24 24" width="24" height="24" color="#000000" fill="none">
    <defs />
    <path fill="currentColor" d="M11.943,1.75 L12.057,1.75 C14.248,1.75 15.969,1.75 17.312,1.931 C18.689,2.116 19.781,2.503 20.639,3.361 C21.497,4.219 21.884,5.311 22.069,6.688 C22.25,8.031 22.25,9.752 22.25,11.943 L22.25,12.057 C22.25,14.248 22.25,15.969 22.069,17.312 C21.884,18.689 21.497,19.781 20.639,20.639 C19.781,21.497 18.689,21.884 17.312,22.069 C15.969,22.25 14.248,22.25 12.057,22.25 L11.943,22.25 C9.752,22.25 8.031,22.25 6.688,22.069 C5.311,21.884 4.219,21.497 3.361,20.639 C2.503,19.781 2.116,18.689 1.931,17.312 C1.75,15.969 1.75,14.248 1.75,12.057 L1.75,11.943 C1.75,9.752 1.75,8.031 1.931,6.688 C2.116,5.311 2.503,4.219 3.361,3.361 C4.219,2.503 5.311,2.116 6.688,1.931 C8.031,1.75 9.752,1.75 11.943,1.75 L11.943,1.75 Z M4.422,4.422 C3.889,4.955 3.58,5.678 3.417,6.888 C3.252,8.12 3.25,9.74 3.25,12 C3.25,14.26 3.252,15.88 3.417,17.112 C3.58,18.322 3.889,19.045 4.422,19.578 C4.955,20.111 5.678,20.42 6.888,20.583 C8.12,20.748 9.74,20.75 12,20.75 C14.26,20.75 15.88,20.748 17.112,20.583 C18.322,20.42 19.045,20.111 19.578,19.578 C20.111,19.045 20.42,18.322 20.583,17.112 C20.748,15.88 20.75,14.26 20.75,12 C20.75,9.74 20.748,8.12 20.583,6.888 C20.42,5.678 20.111,4.955 19.578,4.422 C19.045,3.889 18.322,3.58 17.112,3.417 C15.88,3.252 14.26,3.25 12,3.25 C9.74,3.25 8.12,3.252 6.888,3.417 C5.678,3.58 4.955,3.889 4.422,4.422 Z M16.75,7 L16.75,13.5 C16.75,13.532 16.748,13.564 16.744,13.595 C16.748,13.646 16.75,13.698 16.75,13.75 C16.75,14.855 15.855,15.75 14.75,15.75 C13.645,15.75 12.75,14.855 12.75,13.75 C12.75,12.645 13.645,11.75 14.75,11.75 C14.923,11.75 15.09,11.772 15.25,11.813 L15.25,8.418 C14.417,8.871 13.336,9.291 12.135,9.533 C11.608,9.639 11.267,9.709 11.025,9.782 C10.895,9.821 10.832,9.851 10.806,9.865 C10.798,9.89 10.785,9.942 10.774,10.042 C10.751,10.249 10.75,10.536 10.75,11 L10.75,15.5 C10.75,16.743 9.743,17.75 8.5,17.75 C7.257,17.75 6.25,16.743 6.25,15.5 C6.25,14.257 7.257,13.25 8.5,13.25 C8.763,13.25 9.015,13.295 9.25,13.378 L9.25,10.962 C9.25,10.548 9.25,10.177 9.283,9.878 C9.317,9.562 9.398,9.21 9.646,8.908 C9.906,8.59 10.272,8.442 10.59,8.346 C10.909,8.25 11.322,8.166 11.802,8.07 L11.838,8.062 C13.603,7.707 14.971,6.934 15.488,6.452 C15.707,6.248 16.025,6.193 16.299,6.312 C16.573,6.431 16.75,6.701 16.75,7 Z M8.5,14.75 C8.086,14.75 7.75,15.086 7.75,15.5 C7.75,15.914 8.086,16.25 8.5,16.25 C8.914,16.25 9.25,15.914 9.25,15.5 C9.25,15.086 8.914,14.75 8.5,14.75 Z M14.25,13.75 C14.25,14.026 14.474,14.25 14.75,14.25 C15.026,14.25 15.25,14.026 15.25,13.75 C15.25,13.474 15.026,13.25 14.75,13.25 C14.474,13.25 14.25,13.474 14.25,13.75 Z M10.814,9.848 L10.812,9.85 C10.813,9.849 10.814,9.848 10.814,9.848 Z" />
</svg>