<svg xmlns="http://www.w3.org/2000/svg" viewBox="0 0 24 24" width="24" height="24" color="#000000" fill="none">
    <defs />
    <path fill="currentColor" d="M12.069,6.949 C13.386,7.796 14.432,8.468 15.175,9.084 C15.932,9.71 16.49,10.367 16.669,11.22 C16.777,11.734 16.777,12.266 16.669,12.78 C16.49,13.633 15.932,14.29 15.175,14.917 C14.432,15.532 13.386,16.205 12.069,17.051 L11.98,17.108 C10.546,18.03 9.411,18.76 8.484,19.208 C7.552,19.658 6.666,19.908 5.791,19.64 C5.275,19.483 4.802,19.206 4.408,18.833 C3.747,18.21 3.491,17.315 3.37,16.257 C3.25,15.203 3.25,13.814 3.25,12.051 L3.25,11.949 C3.25,10.186 3.25,8.797 3.37,7.743 C3.491,6.686 3.747,5.79 4.408,5.167 C4.802,4.794 5.275,4.518 5.791,4.36 C6.666,4.092 7.552,4.342 8.484,4.793 C9.411,5.24 10.546,5.97 11.98,6.892 Z M6.23,5.794 C5.938,5.884 5.667,6.041 5.437,6.258 C5.175,6.505 4.971,6.947 4.86,7.913 C4.751,8.872 4.75,10.175 4.75,12 C4.75,13.825 4.751,15.128 4.86,16.087 C4.971,17.053 5.175,17.496 5.437,17.742 C5.667,17.959 5.938,18.117 6.23,18.206 C6.547,18.303 6.994,18.262 7.832,17.857 C8.666,17.454 9.725,16.775 11.214,15.817 C12.584,14.937 13.554,14.312 14.219,13.761 C14.88,13.214 15.126,12.83 15.201,12.472 C15.266,12.161 15.266,11.839 15.201,11.528 C15.126,11.17 14.88,10.786 14.219,10.239 C13.554,9.688 12.584,9.064 11.214,8.183 C9.725,7.225 8.666,6.546 7.832,6.143 C6.994,5.738 6.547,5.697 6.23,5.794 Z M20.75,5 L20.75,19 C20.75,19.414 20.414,19.75 20,19.75 C19.586,19.75 19.25,19.414 19.25,19 L19.25,5 C19.25,4.586 19.586,4.25 20,4.25 C20.414,4.25 20.75,4.586 20.75,5 Z" />
</svg>