<svg xmlns="http://www.w3.org/2000/svg" viewBox="0 0 24 24" width="24" height="24" color="currentColor" fill="none">
    <defs />
    <path fill="currentColor" d="M12,1.25 C17.937,1.25 22.75,6.063 22.75,12 C22.75,17.937 17.937,22.75 12,22.75 C6.063,22.75 1.25,17.937 1.25,12 C1.25,6.063 6.063,1.25 12,1.25 Z M9.956,15.386 C10.411,15.693 11.035,15.354 12.281,14.674 L12.281,14.674 L13.75,13.874 C15.25,13.056 16,12.647 16,12 C16,11.353 15.25,10.944 13.75,10.126 L12.281,9.326 L12.281,9.326 C11.035,8.646 10.411,8.307 9.956,8.614 C9.5,8.921 9.5,9.681 9.5,11.2 L9.5,12.8 C9.5,14.319 9.5,15.079 9.956,15.386 Z" />
</svg>