<svg xmlns="http://www.w3.org/2000/svg" viewBox="0 0 24 24" width="24" height="24" color="#000000" fill="none">
    <defs />
    <path fill="currentColor" d="M11.931,6.949 L12.02,6.892 C13.454,5.97 14.589,5.24 15.516,4.793 C16.448,4.342 17.334,4.092 18.209,4.36 C18.725,4.518 19.198,4.794 19.592,5.167 C20.253,5.79 20.509,6.685 20.63,7.743 C20.75,8.797 20.75,10.186 20.75,11.949 L20.75,12.051 C20.75,13.814 20.75,15.203 20.63,16.257 C20.509,17.315 20.253,18.21 19.592,18.833 C19.198,19.206 18.725,19.482 18.209,19.64 C17.334,19.908 16.448,19.658 15.516,19.208 C14.589,18.76 13.454,18.03 12.02,17.108 L12.02,17.108 L11.931,17.051 C10.614,16.205 9.568,15.532 8.825,14.916 C8.068,14.29 7.51,13.633 7.331,12.78 C7.223,12.266 7.223,11.734 7.331,11.22 C7.51,10.367 8.068,9.71 8.825,9.084 C9.568,8.468 10.614,7.795 11.931,6.949 Z M17.77,5.794 C17.453,5.697 17.006,5.738 16.168,6.143 C15.334,6.546 14.275,7.225 12.786,8.183 C11.416,9.064 10.446,9.688 9.781,10.239 C9.12,10.786 8.874,11.17 8.799,11.528 C8.734,11.839 8.734,12.161 8.799,12.472 C8.874,12.83 9.12,13.214 9.781,13.761 C10.446,14.312 11.416,14.936 12.786,15.817 C14.275,16.775 15.334,17.454 16.168,17.857 C17.006,18.262 17.453,18.303 17.77,18.206 C18.062,18.117 18.333,17.959 18.563,17.742 C18.825,17.495 19.029,17.053 19.139,16.087 C19.249,15.128 19.25,13.825 19.25,12 C19.25,10.175 19.249,8.872 19.139,7.913 C19.029,6.947 18.825,6.505 18.563,6.258 C18.333,6.041 18.062,5.883 17.77,5.794 Z M4.75,4 L4.75,20 C4.75,20.414 4.414,20.75 4,20.75 C3.586,20.75 3.25,20.414 3.25,20 L3.25,4 C3.25,3.586 3.586,3.25 4,3.25 C4.414,3.25 4.75,3.586 4.75,4 Z" />
</svg>