<svg xmlns="http://www.w3.org/2000/svg" viewBox="0 0 24 24" width="24" height="24" color="#000000" fill="none">
    <defs />
    <path fill="currentColor" d="M10.992,3.976 C11.678,3.448 12.496,3.02 13.367,3.388 C14.23,3.753 14.508,4.633 14.627,5.498 C14.75,6.385 14.75,7.606 14.75,9.124 L14.75,14.879 C14.75,16.397 14.75,17.618 14.627,18.505 C14.508,19.37 14.23,20.25 13.367,20.615 C12.496,20.983 11.678,20.555 10.992,20.028 C10.289,19.488 9.443,18.624 8.393,17.552 L8.393,17.551 L8.347,17.504 C7.807,16.954 7.449,16.687 7.087,16.537 C6.722,16.387 6.279,16.323 5.506,16.323 L5.467,16.323 C4.799,16.323 4.24,16.323 3.787,16.276 C3.312,16.226 2.871,16.119 2.474,15.849 C1.718,15.333 1.429,14.578 1.32,13.884 C1.238,13.366 1.247,12.798 1.255,12.34 C1.257,12.219 1.259,12.105 1.259,12.002 C1.259,11.898 1.257,11.784 1.255,11.663 C1.247,11.205 1.238,10.637 1.32,10.119 C1.429,9.425 1.718,8.67 2.474,8.155 C2.871,7.884 3.312,7.777 3.787,7.727 C4.24,7.68 4.799,7.68 5.467,7.68 L5.506,7.68 C6.279,7.68 6.722,7.616 7.087,7.466 C7.449,7.316 7.807,7.05 8.347,6.499 L8.393,6.452 C9.443,5.379 10.289,4.515 10.992,3.976 Z M11.905,5.165 C11.298,5.632 10.525,6.418 9.418,7.548 C8.83,8.149 8.302,8.586 7.66,8.852 C7.019,9.117 6.338,9.18 5.506,9.18 C4.789,9.18 4.308,9.181 3.942,9.219 C3.589,9.256 3.427,9.32 3.32,9.394 C3.029,9.592 2.874,9.892 2.801,10.353 C2.742,10.729 2.748,11.117 2.754,11.552 C2.756,11.696 2.759,11.846 2.759,12.002 C2.759,12.158 2.756,12.307 2.754,12.451 L2.754,12.451 C2.748,12.887 2.742,13.274 2.801,13.65 C2.874,14.111 3.029,14.411 3.32,14.609 C3.427,14.683 3.589,14.747 3.942,14.784 C4.308,14.822 4.789,14.823 5.506,14.823 C6.338,14.823 7.019,14.886 7.66,15.151 C8.302,15.417 8.83,15.854 9.418,16.455 C10.525,17.585 11.298,18.371 11.905,18.838 C12.539,19.324 12.729,19.256 12.783,19.233 C12.845,19.207 13.03,19.105 13.142,18.299 C13.248,17.528 13.25,16.412 13.25,14.815 L13.25,9.188 C13.25,7.591 13.248,6.475 13.142,5.704 C13.03,4.898 12.845,4.796 12.783,4.77 C12.729,4.747 12.539,4.679 11.905,5.165 Z M20.553,6.495 C21.919,7.986 22.75,9.902 22.75,12.002 C22.75,14.101 21.919,16.017 20.553,17.508 C20.274,17.813 19.799,17.834 19.494,17.555 C19.188,17.275 19.167,16.801 19.447,16.495 C20.584,15.254 21.25,13.691 21.25,12.002 C21.25,10.312 20.584,8.749 19.447,7.508 C19.167,7.202 19.188,6.728 19.494,6.448 C19.799,6.169 20.274,6.19 20.553,6.495 Z M16.545,8.405 C16.874,8.154 17.345,8.217 17.596,8.547 C18.32,9.495 18.75,10.699 18.75,12.002 C18.75,13.304 18.32,14.508 17.596,15.457 C17.345,15.786 16.874,15.849 16.545,15.598 C16.216,15.347 16.153,14.876 16.404,14.547 C16.931,13.856 17.25,12.972 17.25,12.002 C17.25,11.031 16.931,10.147 16.404,9.457 C16.153,9.127 16.216,8.657 16.545,8.405 Z" />
</svg>